<svg
          version="1.0"
          xmlns="http://www.w3.org/2000/svg"
          width=" 197.600000pt"
          height="40.800000pt"
          viewBox="0 0 494.000000 102.000000"
          preserveAspectRatio="xMidYMid meet"
        >
          <g
            transform="translate(0.000000,102.000000) scale(0.100000,-0.100000)"
            fill="#000000"
            stroke="none"
          >
            <path
              d="M3780 540 l0 -460 570 0 570 0 0 460 0 460 -570 0 -570 0 0 -460z
m904 272 c68 -40 88 -131 46 -212 -12 -24 -65 -87 -118 -142 l-95 -98 120 0
c101 0 122 -3 127 -16 17 -44 15 -44 -174 -44 -176 0 -180 0 -180 21 0 13 44
66 120 145 67 68 128 140 135 159 36 85 3 155 -73 155 -23 0 -49 -7 -61 -17
-19 -16 -20 -22 -10 -60 15 -55 5 -105 -28 -144 -36 -43 -80 -59 -158 -59
l-65 0 0 -95 0 -95 -40 0 -40 0 0 105 0 105 -80 0 -80 0 0 -105 0 -105 -35 0
-35 0 0 250 0 250 219 0 c133 0 230 -4 250 -11 26 -9 36 -8 58 6 59 39 138 41
197 7z"
            />
            <path
              d="M4270 654 l0 -106 66 4 c58 4 70 8 90 32 27 31 33 90 10 103 -8 4
-14 17 -13 27 3 28 -37 46 -100 46 l-53 0 0 -106z"
            />
            <path d="M4030 665 l0 -85 80 0 80 0 0 85 0 85 -80 0 -80 0 0 -85z" />
            <path
              d="M456 905 c-50 -30 -414 -392 -427 -423 -6 -16 -5 -31 5 -50 22 -42
387 -397 423 -411 45 -18 95 -7 131 30 71 73 54 126 -89 273 -78 81 -109 120
-109 138 0 17 34 60 121 151 110 115 122 132 126 170 5 51 -20 97 -69 127 -43
26 -64 25 -112 -5z"
            />
            <path
              d="M1623 863 c-35 -2 -63 -8 -63 -13 0 -6 9 -10 20 -10 10 0 24 -9 30
-19 6 -12 10 -127 10 -303 0 -295 -2 -308 -42 -308 -10 0 -18 -4 -18 -8 0 -5
45 -9 100 -9 55 0 100 4 100 9 0 4 -8 8 -18 8 -41 0 -42 12 -42 342 0 175 -3
317 -7 316 -5 -1 -36 -3 -70 -5z"
            />
            <path
              d="M1366 834 c-36 -36 -8 -87 44 -82 27 2 37 9 44 30 18 51 -49 91 -88
52z"
            />
            <path
              d="M856 786 c17 -8 34 -21 38 -31 8 -21 8 -482 0 -513 -4 -15 -17 -25
-35 -29 -63 -12 -23 -23 86 -23 65 0 115 4 115 9 0 6 -15 11 -32 13 -47 4 -58
33 -58 161 l0 107 53 0 c28 0 57 -4 63 -8 18 -11 34 -48 34 -76 0 -14 5 -26
10 -26 6 0 9 45 8 120 -2 119 -10 149 -22 88 -12 -63 -30 -78 -92 -78 l-56 0
4 130 c2 84 7 133 15 141 18 18 111 23 161 10 49 -14 68 -39 81 -105 14 -73
19 -65 23 33 l3 91 -215 0 c-189 -1 -211 -2 -184 -14z"
            />
            <path
              d="M2276 786 c17 -8 34 -21 38 -31 8 -21 8 -482 0 -513 -4 -15 -17 -25
-35 -29 -63 -12 -23 -23 86 -23 65 0 115 4 115 9 0 6 -15 11 -32 13 -47 4 -59
35 -56 138 l3 85 80 6 c87 6 126 22 166 66 54 58 62 162 18 225 -40 56 -85 68
-259 67 -139 0 -152 -1 -124 -13z m278 -21 c35 -23 51 -70 50 -145 -1 -114
-46 -162 -154 -164 l-55 -1 0 153 c0 142 2 155 20 169 25 18 103 12 139 -12z"
            />
            <path
              d="M3195 788 c17 -6 33 -16 37 -22 4 -6 8 -128 8 -272 0 -275 -1 -284
-47 -284 -13 0 -23 -4 -23 -10 0 -6 47 -10 120 -10 73 0 120 4 120 10 0 6 -13
10 -29 10 -52 0 -61 20 -61 129 l0 98 78 5 c139 8 203 61 210 173 6 90 -30
148 -107 174 -46 15 -349 14 -306 -1z m265 -16 c47 -23 70 -72 70 -147 0 -111
-46 -164 -145 -168 l-60 -2 -3 152 c-2 127 0 154 13 167 22 21 81 20 125 -2z"
            />
            <path
              d="M1930 628 c-76 -39 -110 -110 -110 -228 1 -132 77 -220 191 -220 22
0 54 6 72 14 37 15 87 69 87 94 0 11 -10 4 -30 -20 -54 -65 -127 -73 -183 -20
-40 37 -57 84 -57 153 l0 59 135 0 135 0 0 33 c-1 59 -34 115 -82 137 -57 26
-104 25 -158 -2z m117 -6 c19 -12 43 -78 43 -117 l0 -35 -95 0 c-106 0 -105
-1 -83 72 15 52 53 88 92 88 17 0 36 -4 43 -8z"
            />
            <path
              d="M2855 632 c-39 -19 -101 -79 -91 -90 3 -2 17 9 31 27 35 41 92 58
131 40 97 -47 56 -202 -88 -333 -37 -33 -68 -67 -68 -73 0 -10 39 -13 160 -13
l160 0 0 56 0 56 -19 -23 c-17 -21 -29 -24 -120 -27 -76 -3 -101 -1 -101 8 0
7 42 54 94 104 103 100 128 146 110 207 -20 68 -119 98 -199 61z"
            />
            <path
              d="M1355 630 c-27 -4 -42 -8 -33 -8 43 -5 48 -24 48 -211 0 -183 -4
-201 -42 -201 -10 0 -18 -4 -18 -8 0 -5 45 -9 100 -9 55 0 100 4 100 9 0 4 -8
8 -18 8 -39 0 -42 17 -42 227 l0 203 -22 -2 c-13 0 -45 -4 -73 -8z"
            />
          </g>
        </svg>